#!OML:ASF G:\JayActor3\Patient Classification 1\Patient 1\Session 5\male.ASF
:FULLY-SPECIFIED
:DEGREES
1141
root 69.8276 15.5562 -6.09245 51.6503 -82.2203 -36.4823
lowerback 34.1538 -3.46825 9.43512
upperback 9.70945 -2.26746 0.0605994
thorax -6.62806 -1.44999 -4.02073
lowerneck 2.24809 0.566315 2.70083
upperneck -23.6253 0.723664 1.50203
head -7.61875 -0.348817 0.0275395
rclavicle -2.18663e-014 1.98785e-016
rhumerus -29.4883 0.614329 -89.3749
rradius 46.407
rwrist -1.31564
rhand -20.7366 -12.2914
rfingers 7.12502
rthumb 5.62868 -42.1966
lclavicle -2.18663e-014 1.98785e-016
lhumerus -29.1567 -1.85556 84.4614
lradius 37.5818
lwrist 20.5988
lhand -20.0038 17.2507
lfingers 7.12502
lthumb 6.33613 47.1359
rfemur -48.5999 0.156877 31.1717
rtibia 65.8043
rfoot -0.0597457 5.35958
rtoes -51.4911
lfemur -63.0702 8.73825 -21.5503
ltibia 58.2641
lfoot -1.50457 -10.0052
ltoes -47.1823
1142
root 69.8968 15.5559 -6.10745 50.6172 -82.0871 -35.464
lowerback 34.1172 -3.48363 9.39538
upperback 9.71106 -2.29482 0.129048
thorax -6.61254 -1.46297 -3.91908
lowerneck 2.23683 0.562052 2.69251
upperneck -23.672 0.717528 1.51647
head -7.63247 -0.354604 0.0345007
rclavicle -6.95746e-015 -2.87244e-014
rhumerus -29.4681 0.599492 -89.2965
rradius 46.2242
rwrist -1.28127
rhand -20.6915 -12.4026
rfingers 7.12502
rthumb 5.67224 -42.3067
lclavicle -6.95746e-015 -2.87244e-014
lhumerus -29.2478 -1.77458 84.485
lradius 37.655
lwrist 20.4881
lhand -19.9267 17.3982
lfingers 7.12502
lthumb 6.41062 47.2811
rfemur -48.785 0.0549348 31.1784
rtibia 65.6903
rfoot -0.396139 5.44196
rtoes -51.2326
lfemur -63.2609 8.76584 -21.5487
ltibia 60.0522
lfoot -1.21415 -8.90924
ltoes -47.2574
1143
root 69.9645 15.5555 -6.12112 49.7389 -81.975 -34.5774
lowerback 34.0556 -3.48626 9.34857
upperback 9.70835 -2.31085 0.190077
thorax -6.59174 -1.47008 -3.82678
lowerneck 2.21892 0.555916 2.68621
upperneck -23.6925 0.711087 1.53908
head -7.63629 -0.360339 0.0436771
rclavicle 3.22031e-014 3.15074e-014
rhumerus -29.4328 0.570381 -89.2172
rradius 46.0307
rwrist -1.23506
rhand -20.6528 -12.4705
rfingers 7.12502
rthumb 5.70961 -42.3735
lclavicle 3.22031e-014 3.15074e-014
lhumerus -29.345 -1.71214 84.5094
lradius 37.736
lwrist 20.4214
lhand -19.9108 17.5262
lfingers 7.12502
lthumb 6.42592 47.4087
rfemur -48.9733 -0.0398688 31.1827
rtibia 65.5622
rfoot -0.731853 5.47789
rtoes -50.9712
lfemur -63.4407 8.80073 -21.5395
ltibia 61.8376
lfoot -0.801176 -7.88122
ltoes -47.257
1144
root 70.03 15.5555 -6.13374 49.0287 -81.8737 -33.8261
lowerback 33.9582 -3.47929 9.30424
upperback 9.69993 -2.31676 0.24612
thorax -6.56326 -1.47169 -3.74608
lowerneck 2.1936 0.547251 2.6796
upperneck -23.6892 0.703003 1.56978
head -7.63091 -0.366565 0.0555368
rclavicle -4.37326e-015 -1.63003e-014
rhumerus -29.391 0.536923 -89.1411
rradius 45.844
rwrist -1.17972
rhand -20.6261 -12.4954
rfingers 7.12502
rthumb 5.73537 -42.3977
lclavicle -4.37326e-015 -1.63003e-014
lhumerus -29.4258 -1.67088 84.5282
lradius 37.8023
lwrist 20.3877
lhand -19.9281 17.5548
lfingers 7.12502
lthumb 6.40918 47.4378
rfemur -49.1699 -0.117324 31.1916
rtibia 65.4148
rfoot -1.07018 5.48265
rtoes -50.6915
lfemur -63.6115 8.8438 -21.5116
ltibia 63.6044
lfoot -0.318173 -6.9412
ltoes -47.2038
1145
root 70.0939 15.5562 -6.14572 48.5419 -81.7794 -33.2637
lowerback 33.8289 -3.46252 9.26359
upperback 9.68225 -2.31073 0.301329
thorax -6.53194 -1.46724 -3.67359
lowerneck 2.17077 0.539481 2.67476
upperneck -23.673 0.697917 1.6049
head -7.62172 -0.371278 0.0682355
rclavicle -9.93923e-015 1.21259e-014
rhumerus -29.3487 0.504235 -89.069
rradius 45.6801
rwrist -1.12719
rhand -20.5748 -12.5932
rfingers 7.12502
rthumb 5.7849 -42.4942
lclavicle -9.93923e-015 1.21259e-014
lhumerus -29.4775 -1.64676 84.5375
lradius 37.8431
lwrist 20.3628
lhand -19.9418 17.5911
lfingers 7.12502
lthumb 6.39602 47.4745
rfemur -49.3831 -0.165771 31.2116
rtibia 65.2441
rfoot -1.41899 5.48668
rtoes -50.3898
lfemur -63.7741 8.90216 -21.4544
ltibia 65.3336
lfoot 0.11692 -6.08806
ltoes -47.2033
1146
root 70.1563 15.5584 -6.15754 48.2394 -81.6776 -32.861
lowerback 33.5861 -3.42785 9.22134
upperback 9.74601 -2.29873 0.375489
thorax -6.49319 -1.45812 -3.6098
lowerneck 2.15564 0.531215 2.67726
upperneck -23.6486 0.693019 1.63652
head -7.6111 -0.375719 0.0784318
rclavicle -4.37326e-015 -1.89839e-014
rhumerus -29.3011 0.471926 -89.0028
rradius 45.5441
rwrist -1.08357
rhand -20.5008 -12.7011
rfingers 7.12502
rthumb 5.85632 -42.6002
lclavicle -4.37326e-015 -1.89839e-014
lhumerus -29.4897 -1.62508 84.5241
lradius 37.8612
lwrist 20.2684
lhand -19.8107 17.7131
lfingers 7.12502
lthumb 6.52253 47.5927
rfemur -49.6047 -0.183139 31.2465
rtibia 65.0428
rfoot -1.76811 5.52459
rtoes -50.0651
lfemur -63.9086 8.97247 -21.3559
ltibia 67.0072
lfoot 0.478486 -5.34117
ltoes -47.2639
